<svg xmlns="http://www.w3.org/2000/svg" width="104" height="124" viewBox="0 0 104 124" role="img" aria-label="Gitmoji: 0% (0 of 100)"><!--trophy-kit v2 night--><title>Gitmoji: 0% (0 of 100)</title><defs><linearGradient id="bg" x1="0" y1="0" x2="0" y2="1"><stop offset="0" stop-color="#171C26"/><stop offset="1" stop-color="#0A0D13"/></linearGradient><clipPath id="card"><rect width="104" height="124" rx="12"/></clipPath><filter id="grain" x="0" y="0" width="100%" height="100%"><feTurbulence type="fractalNoise" baseFrequency=".85" numOctaves="2" stitchTiles="stitch"/><feColorMatrix values="0 0 0 0 1 0 0 0 0 1 0 0 0 0 1 0 0 0 .07 0"/></filter><radialGradient id="glow" cx=".5" cy=".5" r=".5"><stop offset="0" stop-color="#5A626D" stop-opacity="0"/><stop offset="1" stop-color="#5A626D" stop-opacity="0"/></radialGradient><linearGradient id="mh" x1="0" y1="0" x2="1" y2="0"><stop offset="0" stop-color="#252A32"/><stop offset="0.2" stop-color="#3A414B"/><stop offset="0.4" stop-color="#838B96"/><stop offset="0.54" stop-color="#5A626D"/><stop offset="0.78" stop-color="#3A414B"/><stop offset="1" stop-color="#252A32"/></linearGradient><linearGradient id="md" x1="0" y1="0" x2="1" y2="1"><stop offset="0" stop-color="#252A32"/><stop offset="0.2" stop-color="#3A414B"/><stop offset="0.4" stop-color="#838B96"/><stop offset="0.54" stop-color="#5A626D"/><stop offset="0.78" stop-color="#3A414B"/><stop offset="1" stop-color="#252A32"/></linearGradient><linearGradient id="mdr" x1="1" y1="1" x2="0" y2="0"><stop offset="0" stop-color="#252A32"/><stop offset="0.2" stop-color="#3A414B"/><stop offset="0.4" stop-color="#838B96"/><stop offset="0.54" stop-color="#5A626D"/><stop offset="0.78" stop-color="#3A414B"/><stop offset="1" stop-color="#252A32"/></linearGradient><linearGradient id="dia" x1="0" y1="0" x2="1" y2="0"><stop offset="0" stop-color="#6CCBFF"/><stop offset=".5" stop-color="#C4B2FF"/><stop offset="1" stop-color="#F29BDD"/></linearGradient><linearGradient id="pb" x1="0" y1="0" x2="1" y2="0"><stop offset="0" stop-color="#8F5125"/><stop offset="1" stop-color="#F5C69A"/></linearGradient><linearGradient id="shg" x1="0" y1="0" x2="1" y2="0"><stop offset="0" stop-color="#FFFFFF" stop-opacity="0"/><stop offset=".5" stop-color="#FFFFFF" stop-opacity=".6"/><stop offset="1" stop-color="#FFFFFF" stop-opacity="0"/></linearGradient><radialGradient id="en" cx=".42" cy=".36" r=".75"><stop offset="0" stop-color="#756A5A"/><stop offset=".55" stop-color="#524531"/><stop offset="1" stop-color="#3E3425"/></radialGradient><linearGradient id="ig" gradientUnits="userSpaceOnUse" x1="0" y1="34" x2="0" y2="62"><stop offset="0" stop-color="#7D858F"/><stop offset="1" stop-color="#4E5661"/></linearGradient><radialGradient id="gl" cx=".5" cy=".5" r=".5"><stop offset="0" stop-color="#FFFFFF" stop-opacity=".45"/><stop offset="1" stop-color="#FFFFFF" stop-opacity="0"/></radialGradient><clipPath id="fc"><circle cx="52" cy="48" r="27"/></clipPath></defs><g clip-path="url(#card)"><rect width="104" height="124" fill="url(#bg)"/><rect width="104" height="124" filter="url(#grain)"/></g><rect x=".5" y=".5" width="103" height="123" rx="11.5" fill="none" stroke="#FFFFFF" stroke-opacity=".09"/><circle cx="52" cy="48" r="48" fill="url(#glow)"/><circle cx="52" cy="48" r="38" fill="none" stroke="#FFFFFF" stroke-opacity=".08" stroke-width="2.6"/><circle cx="52" cy="49.5" r="34" fill="#000000" fill-opacity=".45"/><circle cx="52" cy="48" r="33" fill="url(#md)"/><circle cx="52" cy="48" r="29.6" fill="url(#mdr)"/><circle cx="52" cy="48" r="27" fill="url(#en)"/><g transform="translate(38.8 36) scale(1.1)" fill="none" stroke="#000000" stroke-width="1.9" stroke-linecap="round" stroke-linejoin="round" stroke-opacity=".35"><path d="M12 3l2.2 6.8L21 12l-6.8 2.2L12 21l-2.2-6.8L3 12l6.8-2.2z"/></g><g transform="translate(38.8 34.2) scale(1.1)" fill="none" stroke="url(#ig)" stroke-width="1.9" stroke-linecap="round" stroke-linejoin="round"><path d="M12 3l2.2 6.8L21 12l-6.8 2.2L12 21l-2.2-6.8L3 12l6.8-2.2z"/></g><g clip-path="url(#fc)"><ellipse cx="42" cy="34" rx="20" ry="10" transform="rotate(-32 42 34)" fill="url(#gl)" opacity=".25"/></g><g transform="translate(32.6 101) scale(0.00900 -0.00900)" fill="#8B949E"><use href="#s71" x="0"/><use href="#s105" x="869"/><use href="#s116" x="1255"/><use href="#s109" x="1887"/><use href="#s111" x="2783"/><use href="#s106" x="3594"/><use href="#s105" x="3968"/></g><g transform="translate(32.1 114) scale(0.00850 -0.00850)" fill="#8B949E"><use href="#m48" x="0"/><use href="#m37" x="544"/><use href="#m183" x="1704"/><use href="#m48" x="2308"/><use href="#m47" x="2852"/><use href="#m49" x="3332"/><use href="#m48" x="3700"/><use href="#m48" x="4244"/></g><defs><path id="m37" d="M54 557Q54 598 74 633Q94 668 128 688Q163 709 204 709Q244 709 278 688Q313 668 333 633Q353 598 353 557Q353 515 333 480Q313 445 279 424Q245 404 204 404Q163 404 128 424Q94 445 74 480Q54 515 54 557ZM162 14 526 692Q530 700 541 700H599Q606 700 608 696Q610 692 607 686L243 8Q239 0 228 0H170Q163 0 161 4Q159 8 162 14ZM289 557Q289 594 264 620Q239 647 204 647Q168 647 143 621Q118 595 118 557Q118 519 143 492Q168 466 204 466Q240 466 264 492Q289 519 289 557ZM419 144Q419 185 439 220Q459 255 493 276Q527 296 568 296Q609 296 643 276Q677 255 697 220Q717 185 717 144Q717 102 697 67Q677 32 643 12Q609 -9 568 -9Q527 -9 493 12Q459 32 439 67Q419 102 419 144ZM654 144Q654 182 629 208Q604 234 568 234Q532 234 507 208Q482 182 482 144Q482 106 507 80Q532 53 568 53Q604 53 629 80Q654 106 654 144Z"/><path id="m47" d="M21 14 226 690Q229 700 239 700H331Q337 700 340 696Q343 692 341 686L136 10Q133 0 123 0H31Q25 0 22 4Q19 8 21 14Z"/><path id="m48" d="M38 183V517Q38 604 89 658Q140 711 224 711Q309 711 360 658Q412 604 412 517V183Q412 96 360 42Q309 -11 224 -11Q140 -11 89 42Q38 96 38 183ZM296 176V524Q296 563 276 586Q257 610 224 610Q192 610 173 586Q154 563 154 524V176Q154 137 173 114Q192 90 224 90Q257 90 276 114Q296 137 296 176Z"/><path id="m49" d="M122 700H218Q223 700 226 696Q230 693 230 688V12Q230 7 226 4Q223 0 218 0H126Q121 0 118 4Q114 7 114 12V576Q114 578 112 580Q111 582 109 581L27 565H24Q13 565 13 576L10 643Q10 653 18 657L107 697Q114 700 122 700Z"/><path id="m183" d="M37 286Q37 317 57 337Q77 357 108 357Q139 357 158 337Q178 317 178 286Q178 255 158 235Q138 215 108 215Q77 215 57 235Q37 255 37 286Z"/><path id="s71" d="M755 280V115Q731 85 684 55Q636 25 570 6Q504 -14 423 -14Q309 -14 224 30Q139 75 92 157Q45 239 45 351Q45 463 92 544Q138 625 224 670Q311 714 429 714Q484 714 536 706Q588 699 632 687Q676 675 705 659L707 488H698Q679 556 643 596Q607 637 560 654Q512 672 459 672Q378 672 322 632Q265 593 236 520Q208 447 208 345Q208 249 234 178Q261 106 312 68Q363 29 436 28Q473 28 508 40Q542 51 568 73Q594 95 605 127L606 280Q606 325 555 325H539V335H820V325H805Q775 325 763 310Q754 299 755 280Z"/><path id="s105" d="M104 63V537Q104 560 87 575Q70 590 46 590H34V600H318L317 590H306Q282 590 266 575Q249 560 248 537V63Q249 41 266 26Q282 10 306 10H318V0H34V10H47Q70 10 87 26Q104 41 104 63Z"/><path id="s106" d="M315 600V590H303Q279 590 262 574Q246 558 245 535V31Q245 -18 224 -58Q203 -99 168 -126Q133 -154 89 -166Q45 -179 -3 -174V-165Q36 -148 58 -117Q81 -86 90 -46Q100 -7 100 33V544Q97 561 84 574Q67 590 42 590H31L30 600Z"/><path id="s109" d="M705 613H714L793 64Q798 38 816 24Q835 10 858 10H872V0H594V10H608Q630 10 637 24Q644 39 642 50L604 337L444 83L435 67Q426 50 418 27Q409 4 408 -19H399L168 331L133 43Q134 35 140 25Q148 10 168 10H182V0H-8V10H5Q30 10 48 24Q67 38 71 64H72L149 613H157L440 190Z"/><path id="s111" d="M388 613Q468 613 533 592Q598 570 645 529Q692 488 718 430Q743 372 743 299Q743 227 718 170Q692 112 645 71Q598 30 533 8Q468 -13 388 -13Q309 -13 244 8Q179 30 132 71Q85 112 60 170Q35 227 35 299Q35 372 60 430Q85 488 132 529Q179 570 244 592Q309 613 388 613ZM388 26Q449 26 494 60Q540 93 564 154Q589 215 589 299Q589 384 564 446Q540 507 494 540Q449 574 388 574Q328 574 283 540Q238 507 213 446Q188 384 188 299Q188 215 213 154Q238 93 283 60Q328 26 388 26Z"/><path id="s116" d="M590 616V458H579V467Q580 510 556 535Q531 560 488 561H372V63Q372 41 388 26Q404 10 427 10H438V0H162V10H173Q195 10 210 26Q226 41 227 63V561H112Q68 560 44 535Q21 510 21 467V458H10V616Q19 614 36 610Q54 606 76 604Q97 601 115 601H484Q503 601 525 604Q547 606 565 610Q583 613 590 616Z"/></defs></svg>
