<svg xmlns="http://www.w3.org/2000/svg" width="104" height="124" viewBox="0 0 104 124" role="img" aria-label="Squeaky: earned, Rare"><!--trophy-kit v1 day--><title>Squeaky: earned, Rare</title><style>@keyframes tw{0%,100%{opacity:.15;transform:scale(.45)}50%{opacity:1;transform:scale(1)}}.sp{transform-box:fill-box;transform-origin:center;animation:tw 3.4s ease-in-out infinite}@keyframes sh{0%{transform:translateX(-110px)}38%,100%{transform:translateX(200px)}}.sh{animation:sh 6.5s ease-in-out infinite}@keyframes fl{0%,100%{transform:translateY(0)}50%{transform:translateY(-3px)}}.fl{animation:fl 5s ease-in-out infinite}@media (prefers-reduced-motion:reduce){.sp,.fl{animation:none}.sh,.bu{display:none}}</style><defs><linearGradient id="bg" x1="0" y1="0" x2="0" y2="1"><stop offset="0" stop-color="#FFFFFF"/><stop offset="1" stop-color="#EDF0F3"/></linearGradient><clipPath id="card"><rect width="104" height="124" rx="12"/></clipPath><filter id="grain" x="0" y="0" width="100%" height="100%"><feTurbulence type="fractalNoise" baseFrequency=".85" numOctaves="2" stitchTiles="stitch"/><feColorMatrix values="0 0 0 0 0 0 0 0 0 0 0 0 0 0 0 0 0 0 .05 0"/></filter><radialGradient id="glow" cx=".5" cy=".5" r=".5"><stop offset="0" stop-color="#EDC34A" stop-opacity="0.19"/><stop offset="1" stop-color="#EDC34A" stop-opacity="0"/></radialGradient><linearGradient id="mh" x1="0" y1="0" x2="1" y2="0"><stop offset="0" stop-color="#6B4306"/><stop offset="0.2" stop-color="#BE8818"/><stop offset="0.4" stop-color="#FFF1B5"/><stop offset="0.54" stop-color="#EDC34A"/><stop offset="0.78" stop-color="#BE8818"/><stop offset="1" stop-color="#6B4306"/></linearGradient><linearGradient id="md" x1="0" y1="0" x2="1" y2="1"><stop offset="0" stop-color="#6B4306"/><stop offset="0.2" stop-color="#BE8818"/><stop offset="0.4" stop-color="#FFF1B5"/><stop offset="0.54" stop-color="#EDC34A"/><stop offset="0.78" stop-color="#BE8818"/><stop offset="1" stop-color="#6B4306"/></linearGradient><linearGradient id="mdr" x1="1" y1="1" x2="0" y2="0"><stop offset="0" stop-color="#6B4306"/><stop offset="0.2" stop-color="#BE8818"/><stop offset="0.4" stop-color="#FFF1B5"/><stop offset="0.54" stop-color="#EDC34A"/><stop offset="0.78" stop-color="#BE8818"/><stop offset="1" stop-color="#6B4306"/></linearGradient><linearGradient id="dia" x1="0" y1="0" x2="1" y2="0"><stop offset="0" stop-color="#2F7DD1"/><stop offset=".5" stop-color="#7B61E0"/><stop offset="1" stop-color="#C2449A"/></linearGradient><linearGradient id="pb" x1="0" y1="0" x2="1" y2="0"><stop offset="0" stop-color="#8FA6C0"/><stop offset="1" stop-color="#D3E4F4"/></linearGradient><linearGradient id="shg" x1="0" y1="0" x2="1" y2="0"><stop offset="0" stop-color="#FFFFFF" stop-opacity="0"/><stop offset=".5" stop-color="#FFFFFF" stop-opacity=".6"/><stop offset="1" stop-color="#FFFFFF" stop-opacity="0"/></linearGradient><radialGradient id="en" cx=".42" cy=".36" r=".75"><stop offset="0" stop-color="#95B684"/><stop offset=".55" stop-color="#7AA465"/><stop offset="1" stop-color="#314228"/></radialGradient><linearGradient id="ig" gradientUnits="userSpaceOnUse" x1="0" y1="34" x2="0" y2="62"><stop offset="0" stop-color="#FFF1B5"/><stop offset="1" stop-color="#EDC34A"/></linearGradient><radialGradient id="gl" cx=".5" cy=".5" r=".5"><stop offset="0" stop-color="#FFFFFF" stop-opacity=".45"/><stop offset="1" stop-color="#FFFFFF" stop-opacity="0"/></radialGradient><clipPath id="fc"><circle cx="52" cy="48" r="27"/></clipPath></defs><g clip-path="url(#card)"><rect width="104" height="124" fill="url(#bg)"/><rect width="104" height="124" filter="url(#grain)"/></g><rect x=".5" y=".5" width="103" height="123" rx="11.5" fill="none" stroke="#1F2328" stroke-opacity=".13"/><circle cx="52" cy="48" r="48" fill="url(#glow)"/><circle cx="52" cy="49.5" r="34" fill="#000000" fill-opacity=".14"/><circle cx="52" cy="48" r="33" fill="url(#md)"/><circle cx="52" cy="48" r="31.8" fill="none" stroke="#6B4306" stroke-opacity=".55" stroke-width="1.5" stroke-dasharray=".9 1.4"/><circle cx="52" cy="48" r="29.6" fill="url(#mdr)"/><circle cx="52" cy="48" r="27" fill="url(#en)"/><g transform="translate(38.8 36) scale(1.1)" fill="none" stroke="#000000" stroke-width="1.9" stroke-linecap="round" stroke-linejoin="round" stroke-opacity=".35"><path d="M20 6L9 17l-5-5"/></g><g transform="translate(38.8 34.2) scale(1.1)" fill="none" stroke="url(#ig)" stroke-width="1.9" stroke-linecap="round" stroke-linejoin="round"><path d="M20 6L9 17l-5-5"/></g><g clip-path="url(#fc)"><ellipse cx="42" cy="34" rx="20" ry="10" transform="rotate(-32 42 34)" fill="url(#gl)" opacity=".7"/><g transform="skewX(-18)"><rect class="sh" x="10" y="10" width="12" height="80" fill="url(#shg)" opacity=".6"/></g></g><g transform="translate(30.5 101) scale(0.00900 -0.00900)" fill="#1F2328"><use href="#s83" x="0"/><use href="#s113" x="611"/><use href="#s117" x="1412"/><use href="#s101" x="2150"/><use href="#s97" x="2747"/><use href="#s107" x="3425"/><use href="#s121" x="4131"/></g><g transform="translate(43.1 114) scale(0.00850 -0.00850)" fill="#946A07"><use href="#m82" x="0"/><use href="#m65" x="555"/><use href="#m82" x="1105"/><use href="#m69" x="1660"/></g><defs><path id="m65" d="M325 11 306 116Q306 121 300 121H154Q148 121 148 116L129 11Q128 0 116 0H25Q11 0 14 13L162 689Q164 700 175 700H281Q292 700 294 689L442 13V9Q442 0 431 0H338Q326 0 325 11ZM171 212H282Q288 212 287 217L229 533Q228 536 226 536Q224 536 223 533L166 217Q165 212 171 212Z"/><path id="m69" d="M391 600H175Q170 600 170 595V406Q170 401 175 401H303Q308 401 312 398Q315 394 315 389V312Q315 307 312 304Q308 300 303 300H175Q170 300 170 295V105Q170 100 175 100H391Q396 100 400 96Q403 93 403 88V12Q403 7 400 4Q396 0 391 0H66Q61 0 58 4Q54 7 54 12V688Q54 693 58 696Q61 700 66 700H391Q396 700 400 696Q403 693 403 688V612Q403 607 400 604Q396 600 391 600Z"/><path id="m82" d="M318 10 233 297Q231 301 228 301H175Q170 301 170 296V12Q170 7 166 4Q163 0 158 0H66Q61 0 58 4Q54 7 54 12V688Q54 693 58 696Q61 700 66 700H254Q307 700 348 674Q388 649 410 602Q433 556 433 496Q433 434 409 389Q385 344 342 321Q338 320 339 315L437 14Q438 12 438 9Q438 0 427 0H331Q321 0 318 10ZM170 595V396Q170 391 175 391H236Q272 391 294 419Q317 447 317 495Q317 543 294 572Q272 600 236 600H175Q170 600 170 595Z"/><path id="s83" d="M277 714Q297 714 326 712Q356 710 388 707Q399 705 409 704H476L475 692Q475 692 475 692L463 557H453Q453 609 414 640Q376 672 312 672Q254 672 218 644Q183 616 181 576Q180 546 200 524Q220 502 251 483L442 359Q488 333 512 291Q535 249 532 193Q527 95 457 40Q387 -14 267 -14Q223 -14 182 -6Q140 1 108 14Q76 28 57 47Q49 69 50 100Q51 131 60 163Q68 195 81 216H90Q86 165 108 122Q131 78 174 52Q218 27 278 28Q344 29 380 62Q416 94 416 140Q416 171 398 196Q379 221 337 244L162 360Q109 390 85 437Q61 484 66 539Q71 591 97 630Q123 670 168 692Q214 714 277 714Z"/><path id="s97" d="M319 627 586 66Q601 35 623 22Q645 10 665 10H673V0H379V10H387Q404 10 418 25Q429 36 424 56L382 157H170L130 63Q121 38 134 25Q148 10 165 10H173V0H-27V10H-19Q1 10 23 22Q45 35 59 66L264 506Q266 512 273 528Q280 543 288 562Q296 582 303 600Q310 617 311 627ZM187 196H365L277 404Z"/><path id="s101" d="M543 184 505 0H34V10H47Q69 10 84 26Q100 41 101 63V537Q100 560 84 575Q69 590 47 590H34V600H385Q414 600 446 606Q478 611 490 615V456H480V465Q480 509 456 534Q433 559 389 560H245V317H359Q394 318 414 340Q435 363 435 396V403H445V191H435V199Q435 232 414 254Q394 276 359 277H245V40H363Q406 40 440 58Q473 75 497 108Q521 140 534 184Z"/><path id="s107" d="M102 63V537Q101 560 85 576Q69 591 46 591H35V601H312V591H301Q278 591 262 576Q246 560 246 537V63Q246 41 262 26Q278 10 301 10H312V0H36V10H46Q69 10 85 26Q101 41 102 63ZM656 601V591H652Q623 591 598 580Q573 569 557 550L395 360L606 67Q625 39 646 24Q667 10 695 9V0H618Q608 0 585 1Q562 2 532 8Q503 15 473 31Q443 47 420 77Q415 84 403 101Q391 118 374 141Q358 164 340 188Q323 212 308 233Q293 254 284 267L275 280L480 552Q491 566 484 578Q477 591 460 591H452V601Z"/><path id="s113" d="M380 613Q458 613 522 592Q585 570 630 529Q676 488 700 430Q725 372 725 299Q725 227 700 170Q676 112 630 71Q585 30 522 9Q515 6 509 4Q517 3 525 1Q561 -7 597 -18Q633 -29 674 -44Q715 -58 768 -79Q827 -101 882 -112Q938 -122 988 -120Q1038 -117 1081 -102Q1124 -87 1159 -60L1164 -63Q1162 -108 1138 -146Q1115 -184 1074 -210Q1033 -235 976 -244Q920 -253 852 -240Q783 -227 706 -187Q658 -162 616 -133Q573 -104 534 -78Q495 -51 457 -33Q423 -18 386 -13Q383 -13 380 -13Q302 -13 238 8Q175 30 130 71Q84 112 60 170Q35 227 35 299Q35 372 60 430Q84 488 130 529Q175 570 238 592Q302 613 380 613ZM380 26Q438 26 482 60Q525 93 548 154Q572 215 572 299Q572 384 548 446Q525 507 482 540Q438 574 380 574Q322 574 279 540Q236 507 212 446Q188 384 188 299Q188 215 212 154Q236 93 279 60Q322 26 380 26Z"/><path id="s117" d="M290 600V591H276Q257 591 244 579Q231 567 231 548V223Q231 131 274 79Q316 27 392 27Q471 27 514 76Q558 125 559 212V548Q558 567 545 579Q532 591 514 591H500V600H684V591H671Q652 591 638 579Q625 567 625 548V218Q625 111 560 49Q494 -13 374 -13Q229 -13 158 48Q87 110 87 217V548Q86 567 73 579Q60 591 41 591H27V600Z"/><path id="s121" d="M496 538Q507 557 496 574Q485 590 466 590H454V600H669V590H656Q629 590 606 576Q584 562 570 544L390 267V63Q391 41 408 26Q424 10 446 10H458V0H178V10H190Q213 10 229 26Q245 41 246 63V267L69 541Q55 562 32 576Q9 590 -19 590H-31V600H273V590H262Q242 590 232 573Q222 558 229 542L363 311L496 538Z"/></defs></svg>
