<svg xmlns="http://www.w3.org/2000/svg" width="104" height="124" viewBox="0 0 104 124" role="img" aria-label="Ten Strong: 10% (1 of 10)"><!--trophy-kit v1 day--><title>Ten Strong: 10% (1 of 10)</title><defs><linearGradient id="bg" x1="0" y1="0" x2="0" y2="1"><stop offset="0" stop-color="#FFFFFF"/><stop offset="1" stop-color="#EDF0F3"/></linearGradient><clipPath id="card"><rect width="104" height="124" rx="12"/></clipPath><filter id="grain" x="0" y="0" width="100%" height="100%"><feTurbulence type="fractalNoise" baseFrequency=".85" numOctaves="2" stitchTiles="stitch"/><feColorMatrix values="0 0 0 0 0 0 0 0 0 0 0 0 0 0 0 0 0 0 .05 0"/></filter><radialGradient id="glow" cx=".5" cy=".5" r=".5"><stop offset="0" stop-color="#5A626D" stop-opacity="0"/><stop offset="1" stop-color="#5A626D" stop-opacity="0"/></radialGradient><linearGradient id="mh" x1="0" y1="0" x2="1" y2="0"><stop offset="0" stop-color="#252A32"/><stop offset="0.2" stop-color="#3A414B"/><stop offset="0.4" stop-color="#838B96"/><stop offset="0.54" stop-color="#5A626D"/><stop offset="0.78" stop-color="#3A414B"/><stop offset="1" stop-color="#252A32"/></linearGradient><linearGradient id="md" x1="0" y1="0" x2="1" y2="1"><stop offset="0" stop-color="#252A32"/><stop offset="0.2" stop-color="#3A414B"/><stop offset="0.4" stop-color="#838B96"/><stop offset="0.54" stop-color="#5A626D"/><stop offset="0.78" stop-color="#3A414B"/><stop offset="1" stop-color="#252A32"/></linearGradient><linearGradient id="mdr" x1="1" y1="1" x2="0" y2="0"><stop offset="0" stop-color="#252A32"/><stop offset="0.2" stop-color="#3A414B"/><stop offset="0.4" stop-color="#838B96"/><stop offset="0.54" stop-color="#5A626D"/><stop offset="0.78" stop-color="#3A414B"/><stop offset="1" stop-color="#252A32"/></linearGradient><linearGradient id="dia" x1="0" y1="0" x2="1" y2="0"><stop offset="0" stop-color="#2F7DD1"/><stop offset=".5" stop-color="#7B61E0"/><stop offset="1" stop-color="#C2449A"/></linearGradient><linearGradient id="pb" x1="0" y1="0" x2="1" y2="0"><stop offset="0" stop-color="#8F5125"/><stop offset="1" stop-color="#CC8850"/></linearGradient><linearGradient id="shg" x1="0" y1="0" x2="1" y2="0"><stop offset="0" stop-color="#FFFFFF" stop-opacity="0"/><stop offset=".5" stop-color="#FFFFFF" stop-opacity=".6"/><stop offset="1" stop-color="#FFFFFF" stop-opacity="0"/></linearGradient><radialGradient id="en" cx=".42" cy=".36" r=".75"><stop offset="0" stop-color="#E1C5D1"/><stop offset=".55" stop-color="#DAB7C6"/><stop offset="1" stop-color="#A48994"/></radialGradient><linearGradient id="ig" gradientUnits="userSpaceOnUse" x1="0" y1="34" x2="0" y2="62"><stop offset="0" stop-color="#7D858F"/><stop offset="1" stop-color="#4E5661"/></linearGradient><radialGradient id="gl" cx=".5" cy=".5" r=".5"><stop offset="0" stop-color="#FFFFFF" stop-opacity=".45"/><stop offset="1" stop-color="#FFFFFF" stop-opacity="0"/></radialGradient><clipPath id="fc"><circle cx="52" cy="48" r="27"/></clipPath></defs><g clip-path="url(#card)"><rect width="104" height="124" fill="url(#bg)"/><rect width="104" height="124" filter="url(#grain)"/></g><rect x=".5" y=".5" width="103" height="123" rx="11.5" fill="none" stroke="#1F2328" stroke-opacity=".13"/><circle cx="52" cy="48" r="48" fill="url(#glow)"/><circle cx="52" cy="48" r="38" fill="none" stroke="#1F2328" stroke-opacity=".09" stroke-width="2.6"/><circle cx="52" cy="48" r="38" fill="none" stroke="#98A2AD" stroke-width="2.6" stroke-linecap="round" stroke-dasharray="23.9 238.8" transform="rotate(-90 52 48)"/><circle cx="52" cy="49.5" r="34" fill="#000000" fill-opacity=".14"/><circle cx="52" cy="48" r="33" fill="url(#md)"/><circle cx="52" cy="48" r="29.6" fill="url(#mdr)"/><circle cx="52" cy="48" r="27" fill="url(#en)"/><g transform="translate(38.8 36) scale(1.1)" fill="none" stroke="#000000" stroke-width="1.9" stroke-linecap="round" stroke-linejoin="round" stroke-opacity=".35"><circle cx="9" cy="8" r="3.2"/><path d="M3 20a6 6 0 0 1 12 0M16 5.2a3.2 3.2 0 0 1 0 5.6M18 20a6 6 0 0 0-4-5.6"/></g><g transform="translate(38.8 34.2) scale(1.1)" fill="none" stroke="url(#ig)" stroke-width="1.9" stroke-linecap="round" stroke-linejoin="round"><circle cx="9" cy="8" r="3.2"/><path d="M3 20a6 6 0 0 1 12 0M16 5.2a3.2 3.2 0 0 1 0 5.6M18 20a6 6 0 0 0-4-5.6"/></g><g clip-path="url(#fc)"><ellipse cx="42" cy="34" rx="20" ry="10" transform="rotate(-32 42 34)" fill="url(#gl)" opacity=".25"/></g><g transform="translate(21.9 101) scale(0.00900 -0.00900)" fill="#59636E"><use href="#s84" x="0"/><use href="#s101" x="700"/><use href="#s110" x="1298"/><use href="#s83" x="2393"/><use href="#s116" x="3005"/><use href="#s114" x="3637"/><use href="#s111" x="4328"/><use href="#s110" x="5139"/><use href="#s103" x="5951"/></g><g transform="translate(33.5 114) scale(0.00850 -0.00850)" fill="#59636E"><use href="#m49" x="0"/><use href="#m48" x="368"/><use href="#m37" x="912"/><use href="#m183" x="2072"/><use href="#m49" x="2676"/><use href="#m47" x="3044"/><use href="#m49" x="3524"/><use href="#m48" x="3892"/></g><defs><path id="m37" d="M54 557Q54 598 74 633Q94 668 128 688Q163 709 204 709Q244 709 278 688Q313 668 333 633Q353 598 353 557Q353 515 333 480Q313 445 279 424Q245 404 204 404Q163 404 128 424Q94 445 74 480Q54 515 54 557ZM162 14 526 692Q530 700 541 700H599Q606 700 608 696Q610 692 607 686L243 8Q239 0 228 0H170Q163 0 161 4Q159 8 162 14ZM289 557Q289 594 264 620Q239 647 204 647Q168 647 143 621Q118 595 118 557Q118 519 143 492Q168 466 204 466Q240 466 264 492Q289 519 289 557ZM419 144Q419 185 439 220Q459 255 493 276Q527 296 568 296Q609 296 643 276Q677 255 697 220Q717 185 717 144Q717 102 697 67Q677 32 643 12Q609 -9 568 -9Q527 -9 493 12Q459 32 439 67Q419 102 419 144ZM654 144Q654 182 629 208Q604 234 568 234Q532 234 507 208Q482 182 482 144Q482 106 507 80Q532 53 568 53Q604 53 629 80Q654 106 654 144Z"/><path id="m47" d="M21 14 226 690Q229 700 239 700H331Q337 700 340 696Q343 692 341 686L136 10Q133 0 123 0H31Q25 0 22 4Q19 8 21 14Z"/><path id="m48" d="M38 183V517Q38 604 89 658Q140 711 224 711Q309 711 360 658Q412 604 412 517V183Q412 96 360 42Q309 -11 224 -11Q140 -11 89 42Q38 96 38 183ZM296 176V524Q296 563 276 586Q257 610 224 610Q192 610 173 586Q154 563 154 524V176Q154 137 173 114Q192 90 224 90Q257 90 276 114Q296 137 296 176Z"/><path id="m49" d="M122 700H218Q223 700 226 696Q230 693 230 688V12Q230 7 226 4Q223 0 218 0H126Q121 0 118 4Q114 7 114 12V576Q114 578 112 580Q111 582 109 581L27 565H24Q13 565 13 576L10 643Q10 653 18 657L107 697Q114 700 122 700Z"/><path id="m183" d="M37 286Q37 317 57 337Q77 357 108 357Q139 357 158 337Q178 317 178 286Q178 255 158 235Q138 215 108 215Q77 215 57 235Q37 255 37 286Z"/><path id="s83" d="M277 714Q297 714 326 712Q356 710 388 707Q399 705 409 704H476L475 692Q475 692 475 692L463 557H453Q453 609 414 640Q376 672 312 672Q254 672 218 644Q183 616 181 576Q180 546 200 524Q220 502 251 483L442 359Q488 333 512 291Q535 249 532 193Q527 95 457 40Q387 -14 267 -14Q223 -14 182 -6Q140 1 108 14Q76 28 57 47Q49 69 50 100Q51 131 60 163Q68 195 81 216H90Q86 165 108 122Q131 78 174 52Q218 27 278 28Q344 29 380 62Q416 94 416 140Q416 171 398 196Q379 221 337 244L162 360Q109 390 85 437Q61 484 66 539Q71 591 97 630Q123 670 168 692Q214 714 277 714Z"/><path id="s84" d="M654 719V544L644 545V556Q644 603 616 630Q589 658 542 659H409V73Q410 47 428 28Q447 10 473 10H486V0H182V10H195Q221 10 240 28Q258 47 259 73V659H125Q79 658 52 630Q24 603 24 556V545L14 544V719Q24 715 44 711Q65 707 90 704Q115 701 136 701H532Q554 701 578 704Q603 707 624 711Q645 715 654 719Z"/><path id="s101" d="M543 184 505 0H34V10H47Q69 10 84 26Q100 41 101 63V537Q100 560 84 575Q69 590 47 590H34V600H385Q414 600 446 606Q478 611 490 615V456H480V465Q480 509 456 534Q433 559 389 560H245V317H359Q394 318 414 340Q435 363 435 396V403H445V191H435V199Q435 232 414 254Q394 276 359 277H245V40H363Q406 40 440 58Q473 75 497 108Q521 140 534 184Z"/><path id="s103" d="M370 613Q416 613 462 608Q509 602 550 592Q590 581 618 567V408H610Q594 472 562 508Q531 544 490 559Q449 574 401 574Q331 574 283 541Q235 508 210 446Q186 383 186 295Q186 212 208 152Q230 92 273 59Q316 26 377 26Q409 26 438 36Q467 47 489 68Q511 88 520 118L521 238Q521 258 510 268Q498 278 477 278H463V287H720V278H707Q683 278 672 266Q664 256 664 238V105Q643 77 599 50Q555 23 495 5Q435 -13 364 -13Q264 -12 190 26Q116 63 75 133Q34 203 34 301Q34 399 75 468Q116 538 191 576Q266 613 370 613Z"/><path id="s110" d="M91 614 550 211V539Q549 561 534 576Q518 590 495 590H478V600H759V590H742Q720 590 704 576Q687 561 687 539V104Q687 69 690 42Q692 16 695 2L697 -13H688L229 391V61Q230 39 246 24Q262 10 284 10H301V0H21V10H37Q60 10 76 24Q92 39 92 61V500Q92 551 87 583L82 614Z"/><path id="s111" d="M388 613Q468 613 533 592Q598 570 645 529Q692 488 718 430Q743 372 743 299Q743 227 718 170Q692 112 645 71Q598 30 533 8Q468 -13 388 -13Q309 -13 244 8Q179 30 132 71Q85 112 60 170Q35 227 35 299Q35 372 60 430Q85 488 132 529Q179 570 244 592Q309 613 388 613ZM388 26Q449 26 494 60Q540 93 564 154Q589 215 589 299Q589 384 564 446Q540 507 494 540Q449 574 388 574Q328 574 283 540Q238 507 213 446Q188 384 188 299Q188 215 213 154Q238 93 283 60Q328 26 388 26Z"/><path id="s114" d="M106 0H41V10H53Q75 10 91 26Q103 38 106 54V547Q103 564 91 576Q75 590 54 590H41V600H349Q390 600 429 592Q468 583 499 564Q530 546 548 514Q567 483 567 436Q567 401 552 366Q538 332 508 307Q477 282 428 274Q457 265 484 239Q510 213 525 190Q529 182 539 164Q549 147 564 124Q580 102 597 78Q617 51 632 36Q647 22 663 16Q679 10 700 10V0H616Q562 0 524 8Q487 16 460 38Q432 59 409 96Q400 109 390 128Q380 146 370 165Q360 184 352 202Q345 220 342 232Q329 264 312 278Q296 293 282 293V302H307Q328 302 348 310Q369 317 386 338Q403 360 411 402Q413 408 414 419Q416 430 415 444Q413 481 402 504Q390 526 373 538Q356 549 338 554Q321 558 308 558Q289 559 274 559Q259 558 251 559V63Q251 38 268 24Q286 10 306 10H316V0Z"/><path id="s116" d="M590 616V458H579V467Q580 510 556 535Q531 560 488 561H372V63Q372 41 388 26Q404 10 427 10H438V0H162V10H173Q195 10 210 26Q226 41 227 63V561H112Q68 560 44 535Q21 510 21 467V458H10V616Q19 614 36 610Q54 606 76 604Q97 601 115 601H484Q503 601 525 604Q547 606 565 610Q583 613 590 616Z"/></defs></svg>